<svg id="Layer_1" data-name="Layer 1" xmlns="http://www.w3.org/2000/svg" xmlns:xlink="http://www.w3.org/1999/xlink" viewBox="0 0 350 130"><defs><style>.cls-1{fill:none;}.cls-2{clip-path:url(#clip-path);}.cls-3{fill:#8e167c;}.cls-4{clip-path:url(#clip-path-3);}.cls-5{fill:url(#linear-gradient);}.cls-6{fill:#fff;}</style><clipPath id="clip-path"><rect class="cls-1" x="-27.17" y="-42.33" width="446.67" height="223.33"/></clipPath><clipPath id="clip-path-3"><path class="cls-1" d="M34.87,34.67c-5.12,0-9.26,4.41-9.26,9.85v40.2c0,5.44,4.15,9.85,9.26,9.85h27c5.12,0,9.26-4.41,9.26-9.85V44.51c0-5.44-4.15-9.85-9.26-9.85h-27Z"/></clipPath><linearGradient id="linear-gradient" x1="-2.69" y1="0.62" x2="-1.9" y2="0.62" gradientTransform="matrix(0, -76.01, -76.01, 0, 95.88, -109.72)" gradientUnits="userSpaceOnUse"><stop offset="0" stop-color="#6c0a5c"/><stop offset="1" stop-color="#981985"/></linearGradient></defs><title>logoset</title><g class="cls-2"><g class="cls-2"><path class="cls-3" d="M82.56,49.21c0-.44-0.07-5.27-0.07-5.46a0.6,0.6,0,0,0-.74-0.59H80.88c-0.15,0-.2,0-0.2-0.17V42.33c0-.1,0-0.15.2-0.15s1,0.07,2.89.07c1.66,0,2.47-.07,2.79-0.07,0.15,0,.2,0,0.2.15V43a0.15,0.15,0,0,1-.17.17h-1c-0.49,0-.69.17-0.69,0.77,0,0.37-.07,4.23-0.07,5.44v1.24h0.44a1.57,1.57,0,0,0,1-.35c0.54-.4,5.12-6.23,5.34-6.55s0.1-.59-0.22-0.59H91c-0.1,0-.12,0-0.12-0.17V42.36A0.14,0.14,0,0,1,91,42.19c0.3,0,1.31.07,2.45,0.07,0.72,0,1.58-.07,1.88-0.07,0.12,0,.17,0,0.17.12V43a0.16,0.16,0,0,1-.2.17H94.82a2.57,2.57,0,0,0-1.36.47A67.35,67.35,0,0,0,87.7,50l6.62,8.21a2.16,2.16,0,0,0,1.73.62h0.87a0.16,0.16,0,0,1,.17.17v0.62c0,0.12,0,.17-0.2.17s-1.19-.07-3-0.07c-2.05,0-3,.07-3.36.07a0.13,0.13,0,0,1-.15-0.15V59a0.13,0.13,0,0,1,.15-0.15h0.37a0.43,0.43,0,0,0,.4-0.67c-0.22-.49-4.6-6.28-4.92-6.53a1.53,1.53,0,0,0-1.09-.37H84.79v1.78c0,1.24,0,4.87.07,5.22a0.55,0.55,0,0,0,.57.54h1.09a0.16,0.16,0,0,1,.2.15v0.64a0.14,0.14,0,0,1-.15.17c-0.3,0-1-.07-2.79-0.07-2,0-2.74.07-3,.07a0.15,0.15,0,0,1-.17-0.17V59a0.14,0.14,0,0,1,.17-0.15h1a0.57,0.57,0,0,0,.67-0.45c0-.22.07-4.7,0.07-7.79V49.21Z"/><path class="cls-3" d="M100.55,58.52a8.65,8.65,0,0,1-3.63-7.34A9.6,9.6,0,0,1,99.22,45a8.09,8.09,0,0,1,6.7-3.14,8.33,8.33,0,0,1,5.54,2,9.52,9.52,0,0,1,3.39,7.39A9,9,0,0,1,113,56.65a8.4,8.4,0,0,1-7.12,3.49A10.84,10.84,0,0,1,100.55,58.52Zm11.87-7.09c0-5.41-3.86-8.6-6.6-8.6a4.75,4.75,0,0,0-3.91,1.46,8.81,8.81,0,0,0-2.47,6.11c0,6.5,4.52,8.8,6.62,8.8C111.5,59.19,112.42,53.63,112.42,51.43Z"/><path class="cls-3" d="M121.34,59.61a4.5,4.5,0,0,1-2.94-3.31,25.9,25.9,0,0,1-.4-6V44.41c0-.87-0.17-1.26-0.94-1.26H115.9c-0.15,0-.17,0-0.17-0.22V42.38c0-.15,0-0.2.22-0.2s1.46,0.07,3.39.07,3.11-.07,3.39-0.07,0.22,0,.22.15V43c0,0.12,0,.17-0.2.17h-1.24a1.11,1.11,0,0,0-1.19,1c0,0.22,0,2,0,3.21V49c0,1.31.1,4.45,0.12,5.24a5.93,5.93,0,0,0,.79,3.14,4.61,4.61,0,0,0,3.93,1.78,5.27,5.27,0,0,0,3.71-1.36,6.15,6.15,0,0,0,1.29-4.35V48.17c0-1.88,0-3.31-.12-3.93a1.1,1.1,0,0,0-1.11-1.09h-1.09c-0.15,0-.17-0.07-0.17-0.2V42.36c0-.12,0-0.17.17-0.17s1.38,0.07,3,.07,2.5-.07,2.72-0.07,0.25,0.1.25,0.17V42.9c0,0.15,0,.25-0.15.25h-1a1,1,0,0,0-1.06,1c0,0.25,0,3.76,0,4.1s0,4.67-.12,5.64a6.41,6.41,0,0,1-2.08,4.77,6.61,6.61,0,0,1-4.65,1.48A9.18,9.18,0,0,1,121.34,59.61Z"/><path class="cls-3" d="M135.27,42.36c0-.12,0-0.17.17-0.17s1.06,0.07,3,.07,3.19-.07,3.41-0.07,0.25,0.07.25,0.17v0.57a0.18,0.18,0,0,1-.2.22h-1.19c-0.69,0-1,.22-1,0.64a4.16,4.16,0,0,0,.1.84c0.15,0.89,1.06,3.83,1.51,5.22,0.3,0.94,1.73,5.19,2.3,6.7h0c0.52-1.16,2.45-6.25,2.65-6.82s1.19-3.51,1.56-4.6a5.4,5.4,0,0,0,.35-1.41c0-.3-0.17-0.57-0.79-0.57h-0.64c-0.1,0-.12-0.07-0.12-0.22V42.36c0-.12,0-0.17.15-0.17s1.36,0.07,2.92.07c1.8,0,2.42-.07,2.65-0.07s0.17,0,.17.17V43a0.15,0.15,0,0,1-.17.17h-0.67a2.14,2.14,0,0,0-1.76,1c-0.64.79-2.62,5.86-3,6.9-0.3.82-3.49,8.68-3.61,8.92a0.48,0.48,0,0,1-.35.32,0.68,0.68,0,0,1-.42-0.57c-0.79-2.27-2.79-7.91-3.11-8.8L139.13,50c-0.59-1.75-1.75-5.34-2.08-6.08a1,1,0,0,0-1-.82H135.4c-0.1,0-.12-0.07-0.12-0.17V42.36Z"/><path class="cls-3" d="M155.66,58.52A8.65,8.65,0,0,1,152,51.18a9.6,9.6,0,0,1,2.3-6.15,8.09,8.09,0,0,1,6.7-3.14,8.33,8.33,0,0,1,5.54,2,9.52,9.52,0,0,1,3.39,7.39,9,9,0,0,1-1.85,5.41A8.4,8.4,0,0,1,161,60.13,10.84,10.84,0,0,1,155.66,58.52Zm11.87-7.09c0-5.41-3.86-8.6-6.6-8.6A4.75,4.75,0,0,0,157,44.29a8.81,8.81,0,0,0-2.47,6.11c0,6.5,4.52,8.8,6.62,8.8C166.61,59.19,167.53,53.63,167.53,51.43Z"/><path class="cls-3" d="M173.8,48.69c0-1.58,0-4.2-.07-4.65a0.75,0.75,0,0,0-.92-0.89h-1.16c-0.15,0-.17-0.12-0.17-0.25V42.36c0-.12,0-0.17.17-0.17s1.16,0.07,3.21.07c2.4,0,3.44-.07,3.66-0.07s0.22,0.07.22,0.2V43c0,0.12,0,.2-0.25.2H177c-0.77,0-.87.25-0.87,1,0,0.32-.07,4.05-0.07,5.78V52c0,0.42,0,5.76.07,6.77,0.54,0,5.44.1,6.21,0,1.46-.22,2.94-3.19,3.29-4.15,0-.1.1-0.15,0.2-0.1l0.4,0.15c0.07,0,.07.07,0,0.22s-1.06,4.25-1.21,4.92c-0.32,0-2.25,0-4.45,0s-4.62,0-6,0c-1,0-1.68,0-2.2,0l-1,0c-0.17,0-.2,0-0.2-0.17V59c0-.12,0-0.17.17-0.17h1.19c0.91,0,1.06-.35,1.06-0.67s0.07-6.62.07-8.13V48.69Z"/><path class="cls-3" d="M192.51,52.89c-0.25.62-1.61,4.38-1.73,4.89a5.41,5.41,0,0,0-.07.54c0,0.35.3,0.54,0.84,0.54h1.16c0.17,0,.25,0,0.25.17v0.57a0.18,0.18,0,0,1-.2.22c-0.35,0-1.36-.07-2.82-0.07-1.8,0-2.35.07-2.69,0.07-0.12,0-.17,0-0.17-0.2V59a0.17,0.17,0,0,1,.2-0.17h0.87a1.45,1.45,0,0,0,1.43-1.14c0.17-.4,2-5,2.69-7,0.17-.49,2.18-5.81,2.4-6.48a1,1,0,0,0,0-.84,0.69,0.69,0,0,1-.17-0.32,0.25,0.25,0,0,1,.22-0.22,5,5,0,0,0,2.05-1.24,0.51,0.51,0,0,1,.32-0.22c0.15,0,.2.15,0.27,0.42,0.47,1.56,2.4,7.09,2.87,8.68,0.57,1.93,2.18,6.53,2.52,7.24a1.85,1.85,0,0,0,1.68,1.11h0.82a0.16,0.16,0,0,1,.2.17v0.62c0,0.12-.07.17-0.25,0.17-0.45,0-1-.07-3-0.07s-2.92.07-3.49,0.07a0.19,0.19,0,0,1-.2-0.22V59c0-.15.07-0.17,0.22-0.17h0.62c0.69,0,.91-0.25.74-0.94-0.2-.89-1.21-4.05-1.56-5h-6.08Zm5.79-.89c-0.22-.74-2.23-6.92-2.35-7.29a0.59,0.59,0,0,0-.2-0.35,0.51,0.51,0,0,0-.27.37c-0.12.32-2.47,6.65-2.65,7.27h5.46Z"/><path class="cls-3" d="M209.26,45.47c0-1.46-.74-2.27-1.63-2.3l-1,0a0.15,0.15,0,0,1-.15-0.17V42.33a0.12,0.12,0,0,1,.15-0.15c0.12,0,.32,0,0.69,0s0.91,0,1.75,0,1.36,0,1.66,0a0.86,0.86,0,0,1,.72.32l5.19,6.72c0.27,0.35,4.45,5.46,5,6.25h0.1V52.57c0-2.2,0-3.41-.07-4.65a29,29,0,0,0-.3-3.81,1.32,1.32,0,0,0-1.36-1h-0.79A0.14,0.14,0,0,1,219.1,43V42.33a0.13,0.13,0,0,1,.15-0.15c0.35,0,1.14.07,2.72,0.07s2.08-.07,2.4-0.07,0.2,0.07.2,0.17V43a0.15,0.15,0,0,1-.15.17h-0.67c-0.67,0-.91.42-1,1.36-0.1,1.66-.1,4.1-0.1,5.71v9.24a0.66,0.66,0,0,1-.12.59,0.85,0.85,0,0,1-.59-0.4l-3-3.81c-1.73-2.15-3.54-4.42-3.68-4.57s-4.82-6-5-6.16h-0.15v5.49c0,2.3.2,6.33,0.25,6.82,0.1,1,.25,1.43.91,1.43h0.74c0.17,0,.2.07,0.2,0.22v0.54c0,0.15,0,.2-0.2.2s-1.73-.07-2.4-0.07-2.22.07-2.47,0.07-0.12,0-.12-0.17V59a0.13,0.13,0,0,1,.15-0.15h0.84c0.72,0,1-.3,1.11-1.51,0-.47.1-3.29,0.1-7.69v-4.2Z"/><path class="cls-3" d="M237.73,50.29c0.2,0,2.84-.1,3.14-0.15A1.17,1.17,0,0,0,242,49.06a5.81,5.81,0,0,0,.2-1.21,0.16,0.16,0,0,1,.17-0.17l0.62,0a0.15,0.15,0,0,1,.15.2c-0.07.42-.07,2.45-0.07,2.82,0,0.87.1,2.05,0.15,2.57a0.17,0.17,0,0,1-.15.2l-0.54.07c-0.12,0-.17,0-0.2-0.22s-0.2-.89-0.27-1.16a1.16,1.16,0,0,0-1.06-1c-1.16-.12-2.87-0.12-3.26-0.12v1.53c0,1.33,0,3.73,0,4.23a1.71,1.71,0,0,0,1.41,1.93,10.19,10.19,0,0,0,1.83.17c0.42,0,1.66,0,2.17-.07a4.78,4.78,0,0,0,2.15-.87,22.79,22.79,0,0,0,2-2.6c0.07-.12.15-0.22,0.3-0.15l0.4,0.22c0.12,0.07.12,0.15,0,.35l-1.31,3.63a0.52,0.52,0,0,1-.54.37l-2.15,0c-1.48,0-3.88,0-7.74,0-0.91,0-1.61,0-2.1,0s-0.84,0-1.06,0-0.22,0-.22-0.17V59c0-.1.07-0.12,0.25-0.12h1c1.14,0,1.24-.17,1.24-1.09V49.5c0-2.05,0-5.14-.07-5.39-0.1-.79-0.35-1-1.26-1h-0.89c-0.12,0-.2,0-0.2-0.17V42.31c0-.07,0-0.12.17-0.12,0.54,0,1.41.07,3,.07h1.09l7.34,0c0.4,0,.87,0,1,0a0.18,0.18,0,0,1,.2.12l1.26,4a0.16,0.16,0,0,1-.07.22l-0.37.2a0.16,0.16,0,0,1-.2-0.07A20.25,20.25,0,0,0,244,43.82a3.83,3.83,0,0,0-1.88-.67l-4.4-.1v7.24Z"/><path class="cls-3" d="M249,42.36c0-.12,0-0.17.17-0.17s1.06,0.07,3,.07,3.19-.07,3.41-0.07,0.25,0.07.25,0.17v0.57a0.18,0.18,0,0,1-.2.22h-1.19c-0.69,0-1,.22-1,0.64a4.18,4.18,0,0,0,.1.84c0.15,0.89,1.06,3.83,1.51,5.22,0.3,0.94,1.73,5.19,2.3,6.7h0c0.52-1.16,2.45-6.25,2.65-6.82s1.19-3.51,1.56-4.6a5.39,5.39,0,0,0,.35-1.41c0-.3-0.17-0.57-0.79-0.57h-0.64c-0.1,0-.12-0.07-0.12-0.22V42.36c0-.12,0-0.17.15-0.17s1.36,0.07,2.92.07c1.8,0,2.42-.07,2.64-0.07s0.17,0,.17.17V43a0.15,0.15,0,0,1-.17.17h-0.67a2.13,2.13,0,0,0-1.75,1c-0.64.79-2.62,5.86-3,6.9-0.3.82-3.49,8.68-3.61,8.92a0.48,0.48,0,0,1-.35.32,0.68,0.68,0,0,1-.42-0.57c-0.79-2.27-2.79-7.91-3.11-8.8L252.81,50c-0.59-1.75-1.75-5.34-2.08-6.08a1,1,0,0,0-1-.82h-0.64c-0.1,0-.12-0.07-0.12-0.17V42.36Z"/><path class="cls-3" d="M264.32,58.6a1.46,1.46,0,0,1,2.92.1,1.33,1.33,0,0,1-1.38,1.36A1.44,1.44,0,0,1,264.32,58.6Z"/><path class="cls-3" d="M272.26,48.69c0-1.58,0-4.2-.07-4.65a0.75,0.75,0,0,0-.92-0.89h-1.16c-0.15,0-.17-0.12-0.17-0.25V42.36c0-.12,0-0.17.17-0.17s1.16,0.07,3.21.07c2.4,0,3.44-.07,3.66-0.07s0.22,0.07.22,0.2V43c0,0.12,0,.2-0.25.2h-1.48c-0.77,0-.87.25-0.87,1,0,0.32-.07,4.05-0.07,5.78V52c0,0.42,0,5.76.07,6.77,0.54,0,5.44.1,6.21,0,1.46-.22,2.94-3.19,3.29-4.15,0-.1.1-0.15,0.2-0.1l0.4,0.15c0.07,0,.07.07,0,0.22s-1.06,4.25-1.21,4.92c-0.32,0-2.25,0-4.45,0s-4.62,0-6,0c-1,0-1.68,0-2.2,0l-1,0c-0.17,0-.2,0-0.2-0.17V59a0.14,0.14,0,0,1,.17-0.17h1.19c0.92,0,1.06-.35,1.06-0.67s0.07-6.62.07-8.13V48.69Z"/><path class="cls-3" d="M290.52,59.61a4.5,4.5,0,0,1-2.94-3.31,25.9,25.9,0,0,1-.4-6V44.41c0-.87-0.17-1.26-0.94-1.26h-1.16c-0.15,0-.17,0-0.17-0.22V42.38c0-.15,0-0.2.22-0.2s1.46,0.07,3.39.07,3.12-.07,3.39-0.07,0.22,0,.22.15V43c0,0.12,0,.17-0.2.17H290.7a1.11,1.11,0,0,0-1.19,1c0,0.22,0,2,0,3.21V49c0,1.31.1,4.45,0.12,5.24a5.92,5.92,0,0,0,.79,3.14,4.6,4.6,0,0,0,3.93,1.78A5.27,5.27,0,0,0,298,57.81a6.15,6.15,0,0,0,1.29-4.35V48.17c0-1.88,0-3.31-.12-3.93a1.1,1.1,0,0,0-1.11-1.09H297c-0.15,0-.17-0.07-0.17-0.2V42.36c0-.12,0-0.17.17-0.17s1.38,0.07,3,.07,2.5-.07,2.72-0.07,0.25,0.1.25,0.17V42.9c0,0.15,0,.25-0.15.25h-1a1,1,0,0,0-1.06,1c0,0.25,0,3.76,0,4.1s0,4.67-.12,5.64a6.41,6.41,0,0,1-2.08,4.77,6.61,6.61,0,0,1-4.65,1.48A9.18,9.18,0,0,1,290.52,59.61Z"/><path class="cls-3" d="M311.18,43.15h-0.62a18.1,18.1,0,0,0-3.91.3c-1.11.35-1.85,2.08-2.2,2.87a0.18,0.18,0,0,1-.25.12l-0.45-.12a0.13,0.13,0,0,1-.1-0.2c0.25-.89,1.11-4.08,1.16-4.35s0.15-.4.25-0.4a0.43,0.43,0,0,1,.3.1l0.32,0.22a2,2,0,0,0,1.41.42c1.31,0,2.35.15,4.67,0.15H313c2.69,0,3.76-.1,5-0.15a2.44,2.44,0,0,0,1.29-.35l0.47-.3a0.53,0.53,0,0,1,.3-0.1c0.12,0,.17.07,0.22,0.4s0.52,3.36.72,4.45a0.15,0.15,0,0,1-.15.2l-0.4.1c-0.1,0-.12,0-0.2-0.17-0.2-.47-0.94-2.37-1.76-2.77a14.81,14.81,0,0,0-4.28-.42h-0.69v7c0,0.35,0,7.27,0,7.69a0.84,0.84,0,0,0,.84,1h1.56c0.22,0,.25.07,0.25,0.25v0.52c0,0.12,0,.2-0.25.2s-1-.07-3.46-0.07-3.41.07-3.76,0.07a0.2,0.2,0,0,1-.22-0.25V59.12c0-.17,0-0.25.17-0.25h1.68a0.74,0.74,0,0,0,.82-0.59c0.07-.72.07-8.31,0.07-8.77V43.15Z"/><path class="cls-3" d="M320.45,58.6a1.46,1.46,0,0,1,2.92.1A1.33,1.33,0,0,1,322,60.06,1.44,1.44,0,0,1,320.45,58.6Z"/><path class="cls-3" d="M82.54,88.5a1.09,1.09,0,0,0-.57-0.3,0.65,0.65,0,0,0-.4.42,0.43,0.43,0,0,1-.44.3c-0.15,0-.27-0.12-0.22-0.4,0.1-.62.35-3.76,0.42-4.47,0-.15.07-0.15,0.17-0.15l0.37,0c0.1,0,.15,0,0.15.2A4.86,4.86,0,0,0,82.91,87a4.13,4.13,0,0,0,3.46,1.83,3.16,3.16,0,0,0,3.36-3.14c0-2.55-1.83-3.49-3.81-4.18a9.57,9.57,0,0,1-3.61-2,4.83,4.83,0,0,1-1.24-3.61,4.67,4.67,0,0,1,1.53-3.16,4.92,4.92,0,0,1,3.46-1.19,7.11,7.11,0,0,1,2.92.62,0.34,0.34,0,0,0,.47,0l0.32-.3a0.48,0.48,0,0,1,.32-0.15,0.37,0.37,0,0,1,.2.42c0,0.87.32,3.39,0.35,3.93a0.16,0.16,0,0,1-.12.2l-0.3.07a0.1,0.1,0,0,1-.15-0.07,6,6,0,0,0-1.53-2.74,3.45,3.45,0,0,0-2.69-1.06,2.8,2.8,0,0,0-3,2.89,3,3,0,0,0,.77,2.15A7.79,7.79,0,0,0,86.44,79c1.71,0.54,3.09,1,4,2.05a4.82,4.82,0,0,1,1.09,3.36c0,2.92-1.78,5.41-5,5.41A6.08,6.08,0,0,1,82.54,88.5Z"/><path class="cls-3" d="M98,79.95c0.2,0,2.84-.1,3.14-0.15a1.17,1.17,0,0,0,1.14-1.09,5.86,5.86,0,0,0,.2-1.21,0.16,0.16,0,0,1,.17-0.17l0.62,0a0.15,0.15,0,0,1,.15.2c-0.07.42-.07,2.45-0.07,2.82,0,0.87.1,2.05,0.15,2.57a0.17,0.17,0,0,1-.15.2l-0.54.07c-0.12,0-.17,0-0.2-0.22s-0.2-.89-0.27-1.16a1.16,1.16,0,0,0-1.06-1c-1.16-.12-2.87-0.12-3.26-0.12v1.53c0,1.33,0,3.73,0,4.23a1.71,1.71,0,0,0,1.41,1.93,10.15,10.15,0,0,0,1.83.17c0.42,0,1.66,0,2.18-.07a4.77,4.77,0,0,0,2.15-.87,22.69,22.69,0,0,0,2-2.6c0.07-.12.15-0.22,0.3-0.15l0.4,0.22c0.12,0.07.12,0.15,0,.35l-1.31,3.63a0.52,0.52,0,0,1-.54.37l-2.15,0c-1.48,0-3.88,0-7.74,0-0.91,0-1.61,0-2.1,0s-0.84,0-1.06,0-0.22,0-.22-0.17V88.65c0-.1.07-0.12,0.25-0.12h1c1.14,0,1.24-.17,1.24-1.09V79.16c0-2.05,0-5.14-.07-5.39-0.1-.79-0.35-1-1.26-1H93.51c-0.12,0-.2,0-0.2-0.17V72c0-.07,0-0.12.17-0.12,0.54,0,1.41.07,3,.07h1.09l7.34,0c0.4,0,.87,0,1,0a0.18,0.18,0,0,1,.2.12l1.26,4a0.16,0.16,0,0,1-.07.22l-0.37.2a0.16,0.16,0,0,1-.2-0.07,20.19,20.19,0,0,0-2.47-2.82,3.82,3.82,0,0,0-1.88-.67l-4.4-.1v7.24Z"/><path class="cls-3" d="M114.59,89.27A4.5,4.5,0,0,1,111.65,86a25.9,25.9,0,0,1-.4-6V74.07c0-.87-0.17-1.26-0.94-1.26h-1.16c-0.15,0-.17,0-0.17-0.22V72c0-.15,0-0.2.22-0.2s1.46,0.07,3.39.07,3.11-.07,3.39-0.07,0.22,0,.22.15v0.64c0,0.12,0,.17-0.2.17h-1.24a1.11,1.11,0,0,0-1.19,1c0,0.22,0,2,0,3.21v1.63c0,1.31.1,4.45,0.12,5.24a5.93,5.93,0,0,0,.79,3.14,4.61,4.61,0,0,0,3.93,1.78,5.27,5.27,0,0,0,3.71-1.36,6.15,6.15,0,0,0,1.29-4.35V77.82c0-1.88,0-3.31-.12-3.93a1.1,1.1,0,0,0-1.11-1.09H121c-0.15,0-.17-0.07-0.17-0.2V72c0-.12,0-0.17.17-0.17s1.38,0.07,3,.07,2.5-.07,2.72-0.07S127,71.94,127,72v0.54c0,0.15,0,.25-0.15.25h-1a1,1,0,0,0-1.06,1c0,0.25,0,3.76,0,4.1s0,4.67-.12,5.64a6.41,6.41,0,0,1-2.08,4.77,6.61,6.61,0,0,1-4.65,1.48A9.17,9.17,0,0,1,114.59,89.27Z"/><path class="cls-3" d="M130.95,78.17c0-1.83,0-3.41,0-4.13s-0.32-1.24-.94-1.24h-1a0.14,0.14,0,0,1-.15-0.17V72c0-.12,0-0.17.15-0.17s1,0.07,3.07.07c1.38,0,3.68-.07,4.13-0.07a6.75,6.75,0,0,1,4.62,1.51,4.17,4.17,0,0,1,1.29,2.82c0,3.09-1.41,4.25-4.57,4.94v0a2.51,2.51,0,0,1,1.14.94c0.3,0.32,2.05,2.84,2.25,3.16a19.78,19.78,0,0,0,2.18,2.84,2.85,2.85,0,0,0,1.78.42,0.17,0.17,0,0,1,.2.2v0.54c0,0.15,0,.22-0.2.22s-0.84-.07-1.93-0.07c-0.72,0-1.63,0-2,.07a12.27,12.27,0,0,1-1-1.41c-0.2-.3-1.53-2.64-1.66-2.84s-1.29-2-1.58-2.3A3.1,3.1,0,0,0,134,81.51a3.53,3.53,0,0,0-.82.07V83c0,1.46,0,4.23,0,4.6a0.88,0.88,0,0,0,.62,1h1.56a0.16,0.16,0,0,1,.2.2v0.54c0,0.17,0,.22-0.27.22s-0.89-.07-3.24-0.07-2.82.07-3.09,0.07-0.2-.07-0.2-0.2V88.72c0-.12,0-0.2.12-0.2h1a0.8,0.8,0,0,0,1-.84c0-2.45,0-4.77,0-7.12v-2.4Zm2.22,2.45a5,5,0,0,0,1.11.1c4.5,0,5.36-3.09,5.36-4.13a3.76,3.76,0,0,0-1.24-2.82,6,6,0,0,0-4.1-1.14,1.57,1.57,0,0,0-.84.2,1,1,0,0,0-.3.79v7Z"/><path class="cls-3" d="M151.41,82.54c-0.25.62-1.61,4.38-1.73,4.89,0,0.17-.07.42-0.07,0.54,0,0.35.3,0.54,0.84,0.54h1.16c0.17,0,.25,0,0.25.17v0.57a0.18,0.18,0,0,1-.2.22c-0.35,0-1.36-.07-2.82-0.07-1.8,0-2.35.07-2.69,0.07-0.12,0-.17,0-0.17-0.2V88.7a0.17,0.17,0,0,1,.2-0.17H147a1.45,1.45,0,0,0,1.43-1.14c0.17-.4,2-5,2.69-7,0.17-.49,2.18-5.81,2.4-6.48a1,1,0,0,0,0-.84,0.68,0.68,0,0,1-.17-0.32,0.25,0.25,0,0,1,.22-0.22,5,5,0,0,0,2.05-1.24,0.51,0.51,0,0,1,.32-0.22c0.15,0,.2.15,0.27,0.42,0.47,1.56,2.4,7.09,2.87,8.68,0.57,1.93,2.17,6.53,2.52,7.24a1.85,1.85,0,0,0,1.68,1.11h0.82a0.16,0.16,0,0,1,.2.17v0.62c0,0.12-.07.17-0.25,0.17-0.44,0-1-.07-3-0.07s-2.92.07-3.49,0.07a0.19,0.19,0,0,1-.2-0.22V88.7c0-.15.07-0.17,0.22-0.17h0.62c0.69,0,.91-0.25.74-0.94-0.2-.89-1.21-4.05-1.56-5h-6.08Zm5.78-.89c-0.22-.74-2.22-6.92-2.35-7.29a0.59,0.59,0,0,0-.2-0.35,0.51,0.51,0,0,0-.27.37c-0.12.32-2.47,6.65-2.65,7.27h5.46Z"/><path class="cls-3" d="M168,78.86c0-.45-0.07-5.27-0.07-5.46a0.6,0.6,0,0,0-.74-0.59h-0.87c-0.15,0-.2,0-0.2-0.17V72c0-.1,0-0.15.2-0.15s1,0.07,2.89.07c1.66,0,2.47-.07,2.79-0.07,0.15,0,.2,0,0.2.15v0.64a0.15,0.15,0,0,1-.17.17h-1c-0.49,0-.69.17-0.69,0.77,0,0.37-.07,4.23-0.07,5.44v1.24h0.44a1.58,1.58,0,0,0,1-.35c0.54-.4,5.12-6.23,5.34-6.55s0.1-.59-0.22-0.59h-0.35c-0.1,0-.12,0-0.12-0.17V72a0.14,0.14,0,0,1,.15-0.17c0.3,0,1.31.07,2.45,0.07,0.72,0,1.58-.07,1.88-0.07,0.12,0,.17,0,0.17.12v0.67a0.16,0.16,0,0,1-.2.17h-0.52a2.56,2.56,0,0,0-1.36.47,67.29,67.29,0,0,0-5.76,6.43l6.63,8.21a2.16,2.16,0,0,0,1.73.62h0.86a0.16,0.16,0,0,1,.17.17v0.62c0,0.12,0,.17-0.2.17s-1.19-.07-3-0.07c-2.05,0-3,.07-3.36.07a0.13,0.13,0,0,1-.15-0.15V88.7a0.13,0.13,0,0,1,.15-0.15h0.37a0.43,0.43,0,0,0,.4-0.67c-0.22-.5-4.6-6.28-4.92-6.53a1.53,1.53,0,0,0-1.09-.37h-0.47v1.78c0,1.24,0,4.87.07,5.22a0.55,0.55,0,0,0,.57.54h1.09a0.16,0.16,0,0,1,.2.15v0.64a0.14,0.14,0,0,1-.15.17c-0.3,0-1-.07-2.79-0.07-2,0-2.74.07-3,.07a0.15,0.15,0,0,1-.17-0.17V88.68a0.14,0.14,0,0,1,.17-0.15h1a0.57,0.57,0,0,0,.67-0.45c0-.22.07-4.7,0.07-7.79V78.86Z"/><path class="cls-3" d="M188.36,89.27A4.5,4.5,0,0,1,185.42,86a26,26,0,0,1-.4-6V74.07c0-.87-0.17-1.26-0.94-1.26h-1.16c-0.15,0-.17,0-0.17-0.22V72c0-.15,0-0.2.22-0.2s1.46,0.07,3.39.07,3.11-.07,3.39-0.07,0.22,0,.22.15v0.64c0,0.12,0,.17-0.2.17h-1.24a1.11,1.11,0,0,0-1.19,1c0,0.22,0,2,0,3.21v1.63c0,1.31.1,4.45,0.12,5.24a5.92,5.92,0,0,0,.79,3.14,4.6,4.6,0,0,0,3.93,1.78,5.27,5.27,0,0,0,3.71-1.36,6.15,6.15,0,0,0,1.29-4.35V77.82c0-1.88,0-3.31-.12-3.93a1.1,1.1,0,0,0-1.11-1.09h-1.09c-0.15,0-.17-0.07-0.17-0.2V72c0-.12,0-0.17.17-0.17s1.38,0.07,3,.07,2.5-.07,2.72-0.07,0.25,0.1.25,0.17v0.54c0,0.15,0,.25-0.15.25h-1a1,1,0,0,0-1.06,1c0,0.25,0,3.76,0,4.1s0,4.67-.12,5.64a6.41,6.41,0,0,1-2.08,4.77,6.61,6.61,0,0,1-4.65,1.48A9.17,9.17,0,0,1,188.36,89.27Z"/><path class="cls-3" d="M205,75.13c0-1.46-.74-2.27-1.63-2.3l-1,0a0.15,0.15,0,0,1-.15-0.17V72a0.12,0.12,0,0,1,.15-0.15c0.12,0,.32,0,0.69,0s0.91,0,1.75,0,1.36,0,1.66,0a0.86,0.86,0,0,1,.72.32l5.19,6.72c0.27,0.35,4.45,5.46,5,6.25h0.1V82.22c0-2.2,0-3.41-.07-4.65a29,29,0,0,0-.3-3.81,1.32,1.32,0,0,0-1.36-1H215a0.14,0.14,0,0,1-.15-0.17V72a0.13,0.13,0,0,1,.15-0.15c0.35,0,1.14.07,2.72,0.07s2.08-.07,2.4-0.07,0.2,0.07.2,0.17v0.62a0.15,0.15,0,0,1-.15.17H219.5c-0.67,0-.91.42-1,1.36-0.1,1.66-.1,4.1-0.1,5.71v9.25a0.66,0.66,0,0,1-.12.59,0.85,0.85,0,0,1-.59-0.4l-3-3.81c-1.73-2.15-3.54-4.42-3.68-4.57s-4.82-6-5-6.16H205.9v5.49c0,2.3.2,6.33,0.25,6.82,0.1,1,.25,1.43.91,1.43h0.74c0.17,0,.2.07,0.2,0.22v0.54c0,0.15,0,.2-0.2.2s-1.73-.07-2.4-0.07-2.22.07-2.47,0.07-0.12,0-.12-0.17V88.68a0.13,0.13,0,0,1,.15-0.15h0.84c0.72,0,1-.3,1.11-1.51,0-.47.1-3.29,0.1-7.69v-4.2Z"/><path class="cls-3" d="M224.88,75.13c0-1.46-.74-2.27-1.63-2.3l-1,0a0.15,0.15,0,0,1-.15-0.17V72a0.12,0.12,0,0,1,.15-0.15c0.12,0,.32,0,0.69,0s0.92,0,1.76,0,1.36,0,1.66,0a0.86,0.86,0,0,1,.72.32l5.19,6.72c0.27,0.35,4.45,5.46,5,6.25h0.1V82.22c0-2.2,0-3.41-.07-4.65a29.19,29.19,0,0,0-.3-3.81,1.32,1.32,0,0,0-1.36-1h-0.79a0.14,0.14,0,0,1-.15-0.17V72a0.13,0.13,0,0,1,.15-0.15c0.35,0,1.14.07,2.72,0.07s2.08-.07,2.4-0.07,0.2,0.07.2,0.17v0.62a0.15,0.15,0,0,1-.15.17h-0.67c-0.67,0-.91.42-1,1.36-0.1,1.66-.1,4.1-0.1,5.71v9.25a0.66,0.66,0,0,1-.12.59,0.85,0.85,0,0,1-.59-0.4l-3-3.81c-1.73-2.15-3.54-4.42-3.68-4.57s-4.82-6-5-6.16h-0.15v5.49c0,2.3.2,6.33,0.25,6.82,0.1,1,.25,1.43.91,1.43h0.74c0.17,0,.2.07,0.2,0.22v0.54c0,0.15,0,.2-0.2.2s-1.73-.07-2.4-0.07-2.22.07-2.47,0.07-0.12,0-.12-0.17V88.68a0.13,0.13,0,0,1,.15-0.15h0.84c0.72,0,1-.3,1.11-1.51,0-.47.1-3.29,0.1-7.69v-4.2Z"/><path class="cls-3" d="M246.21,82.54c-0.25.62-1.61,4.38-1.73,4.89a5.39,5.39,0,0,0-.07.54c0,0.35.3,0.54,0.84,0.54h1.16c0.17,0,.25,0,0.25.17v0.57a0.18,0.18,0,0,1-.2.22c-0.35,0-1.36-.07-2.82-0.07-1.8,0-2.35.07-2.69,0.07-0.12,0-.17,0-0.17-0.2V88.7a0.17,0.17,0,0,1,.2-0.17h0.87a1.45,1.45,0,0,0,1.43-1.14c0.17-.4,2-5,2.69-7,0.17-.49,2.18-5.81,2.4-6.48a1,1,0,0,0,0-.84,0.68,0.68,0,0,1-.17-0.32,0.25,0.25,0,0,1,.22-0.22,5,5,0,0,0,2.05-1.24,0.51,0.51,0,0,1,.32-0.22c0.15,0,.2.15,0.27,0.42,0.47,1.56,2.4,7.09,2.87,8.68,0.57,1.93,2.18,6.53,2.52,7.24a1.85,1.85,0,0,0,1.68,1.11H259a0.16,0.16,0,0,1,.2.17v0.62c0,0.12-.07.17-0.25,0.17-0.45,0-1-.07-3-0.07s-2.92.07-3.49,0.07a0.19,0.19,0,0,1-.2-0.22V88.7c0-.15.07-0.17,0.22-0.17h0.62c0.69,0,.91-0.25.74-0.94-0.2-.89-1.21-4.05-1.56-5h-6.08Zm5.79-.89c-0.22-.74-2.23-6.92-2.35-7.29a0.59,0.59,0,0,0-.2-0.35,0.51,0.51,0,0,0-.27.37c-0.12.32-2.47,6.65-2.65,7.27H252Z"/><path class="cls-3" d="M265.17,72.81h-0.62a18.1,18.1,0,0,0-3.91.3c-1.11.35-1.85,2.08-2.2,2.87a0.18,0.18,0,0,1-.25.12L257.75,76a0.13,0.13,0,0,1-.1-0.2c0.25-.89,1.11-4.08,1.16-4.35s0.15-.4.25-0.4a0.43,0.43,0,0,1,.3.1l0.32,0.22a2,2,0,0,0,1.41.42c1.31,0,2.35.15,4.67,0.15h1.19c2.69,0,3.76-.1,5-0.15a2.43,2.43,0,0,0,1.29-.35l0.47-.3A0.53,0.53,0,0,1,274,71c0.12,0,.17.07,0.22,0.4s0.52,3.36.72,4.45a0.15,0.15,0,0,1-.15.2l-0.4.1c-0.1,0-.12,0-0.2-0.17-0.2-.47-0.94-2.37-1.76-2.77a14.85,14.85,0,0,0-4.28-.42h-0.69v7c0,0.35,0,7.27,0,7.69a0.84,0.84,0,0,0,.84,1h1.56c0.22,0,.25.07,0.25,0.25v0.52c0,0.12,0,.2-0.25.2s-1-.07-3.46-0.07-3.41.07-3.76,0.07-0.22-.1-0.22-0.25V88.77c0-.17,0-0.25.17-0.25h1.68a0.74,0.74,0,0,0,.82-0.59c0.07-.72.07-8.31,0.07-8.78V72.81Z"/></g><g class="cls-4"><rect class="cls-5" x="25.61" y="34.67" width="45.54" height="59.89"/></g><g class="cls-2"><polygon class="cls-6" points="46.73 38.65 50.02 38.65 50.02 42.19 53.52 42.19 53.52 45.49 50.02 45.49 50.02 49.08 46.73 49.08 46.73 45.49 43.19 45.49 43.19 42.19 46.73 42.19 46.73 38.65"/><polygon class="cls-6" points="32.86 52.22 36.16 52.22 36.16 55.76 39.65 55.76 39.65 59.06 36.16 59.06 36.16 62.65 32.86 62.65 32.86 59.06 29.32 59.06 29.32 55.76 32.86 55.76 32.86 52.22"/><polygon class="cls-6" points="46.73 80.16 50.02 80.16 50.02 83.7 53.52 83.7 53.52 86.99 50.02 86.99 50.02 90.58 46.73 90.58 46.73 86.99 43.19 86.99 43.19 83.7 46.73 83.7 46.73 80.16"/><polygon class="cls-6" points="46.73 66.29 50.02 66.29 50.02 69.83 53.52 69.83 53.52 73.12 50.02 73.12 50.02 76.71 46.73 76.71 46.73 73.12 43.19 73.12 43.19 69.83 46.73 69.83 46.73 66.29"/><polygon class="cls-6" points="46.73 52.22 50.02 52.22 50.02 55.76 53.52 55.76 53.52 59.06 50.02 59.06 50.02 62.65 46.73 62.65 46.73 59.06 43.19 59.06 43.19 55.76 46.73 55.76 46.73 52.22"/><polygon class="cls-6" points="60.55 52.22 63.84 52.22 63.84 55.76 67.34 55.76 67.34 59.06 63.84 59.06 63.84 62.65 60.55 62.65 60.55 59.06 57.01 59.06 57.01 55.76 60.55 55.76 60.55 52.22"/></g></g></svg>